<svg width="462" height="634" viewBox="0 0 462 634" fill="none" xmlns="http://www.w3.org/2000/svg">
<path fill-rule="evenodd" clip-rule="evenodd" d="M215.974 461.164C203.079 453.718 192.605 459.764 192.605 474.656C192.605 489.547 203.079 507.684 215.974 515.13C228.87 522.575 239.343 516.53 239.343 501.638C239.343 486.747 228.87 468.61 215.974 461.164Z" fill="#24E1C8" fill-opacity="0.899"/>
<path fill-rule="evenodd" clip-rule="evenodd" d="M232.259 516.894C236.628 514.511 239.343 509.221 239.343 501.638C239.343 486.747 228.87 468.61 215.974 461.164C209.388 457.361 203.43 457.078 199.181 459.696L81.21 527.84L81.213 527.843C77.153 530.356 74.656 535.52 74.656 542.793C74.656 557.684 85.126 575.822 98.025 583.267C104.331 586.91 110.058 587.324 114.264 585.055L114.268 585.051C114.454 584.951 114.637 584.846 114.818 584.736L232.262 516.897L232.259 516.894Z" fill="#24E1C8" fill-opacity="0.899"/>
<path fill-rule="evenodd" clip-rule="evenodd" d="M232.259 516.894C236.628 514.511 239.343 509.221 239.343 501.638C239.343 486.747 228.87 468.61 215.974 461.164C209.388 457.361 203.43 457.078 199.181 459.696L81.21 527.84L81.213 527.843C77.153 530.356 74.656 535.52 74.656 542.793C74.656 557.684 85.126 575.822 98.025 583.267C104.331 586.91 110.058 587.324 114.264 585.055L114.268 585.051C114.454 584.951 114.637 584.846 114.818 584.736L232.262 516.897L232.259 516.894Z" fill="url(#paint0_linear)"/>
<path fill-rule="evenodd" clip-rule="evenodd" d="M98.025 529.302C85.126 521.856 74.656 527.902 74.656 542.793C74.656 557.684 85.126 575.822 98.025 583.267C110.921 590.713 121.391 584.667 121.391 569.776C121.391 554.884 110.921 536.747 98.025 529.302Z" fill="#4FFCE7" fill-opacity="0.75"/>
<path fill-rule="evenodd" clip-rule="evenodd" d="M98.025 529.302C85.126 521.856 74.656 527.902 74.656 542.793C74.656 557.684 85.126 575.822 98.025 583.267C110.921 590.713 121.391 584.667 121.391 569.776C121.391 554.884 110.921 536.747 98.025 529.302Z" fill="url(#paint1_linear)"/>
<path fill-rule="evenodd" clip-rule="evenodd" d="M182.194 57.4009C176.591 54.1649 172.04 56.7919 172.04 63.2649C172.04 69.7369 176.591 77.6219 182.194 80.8579C187.8 84.0939 192.352 81.4669 192.352 74.9949C192.352 68.5189 187.8 60.6369 182.194 57.4009Z" fill="#24E1C8" fill-opacity="0.899"/>
<path fill-rule="evenodd" clip-rule="evenodd" d="M189.272 81.6228C191.173 80.5878 192.352 78.2888 192.352 74.9948C192.352 68.5188 187.8 60.6368 182.194 57.4008C179.332 55.7468 176.744 55.6268 174.898 56.7628L68.0804 118.448L68.0836 118.451C66.3191 119.542 65.2317 121.785 65.2317 124.946C65.2317 131.418 69.7831 139.304 75.3891 142.54C78.1301 144.122 80.6211 144.301 82.4471 143.315C82.5291 143.272 82.6101 143.223 82.6881 143.178L189.275 81.6228H189.272Z" fill="#24E1C8" fill-opacity="0.899"/>
<path fill-rule="evenodd" clip-rule="evenodd" d="M189.272 81.6228C191.173 80.5878 192.352 78.2888 192.352 74.9948C192.352 68.5188 187.8 60.6368 182.194 57.4008C179.332 55.7468 176.744 55.6268 174.898 56.7628L68.0804 118.448L68.0836 118.451C66.3191 119.542 65.2317 121.785 65.2317 124.946C65.2317 131.418 69.7831 139.304 75.3891 142.54C78.1301 144.122 80.6211 144.301 82.4471 143.315C82.5291 143.272 82.6101 143.223 82.6881 143.178L189.275 81.6228H189.272Z" fill="url(#paint2_linear)"/>
<path fill-rule="evenodd" clip-rule="evenodd" d="M75.3891 119.083C69.7826 115.847 65.2312 118.474 65.2312 124.946C65.2312 131.418 69.7826 139.304 75.3891 142.54C80.9951 145.776 85.5461 143.149 85.5461 136.676C85.5461 130.201 80.9951 122.319 75.3891 119.083Z" fill="#4FFCE7" fill-opacity="0.75"/>
<path fill-rule="evenodd" clip-rule="evenodd" d="M75.3891 119.083C69.7826 115.847 65.2312 118.474 65.2312 124.946C65.2312 131.418 69.7826 139.304 75.3891 142.54C80.9951 145.776 85.5461 143.149 85.5461 136.676C85.5461 130.201 80.9951 122.319 75.3891 119.083Z" fill="url(#paint3_linear)"/>
<path fill-rule="evenodd" clip-rule="evenodd" d="M182.194 57.4009C176.591 54.1649 172.04 56.7919 172.04 63.2649C172.04 69.7369 176.591 77.6219 182.194 80.8579C187.8 84.0939 192.352 81.4669 192.352 74.9949C192.352 68.5189 187.8 60.6369 182.194 57.4009Z" fill="#24E1C8" fill-opacity="0.899"/>
<path fill-rule="evenodd" clip-rule="evenodd" d="M189.272 81.6228C191.173 80.5878 192.352 78.2888 192.352 74.9948C192.352 68.5188 187.8 60.6368 182.194 57.4008C179.332 55.7468 176.744 55.6268 174.898 56.7628L68.0804 118.448L68.0836 118.451C66.3191 119.542 65.2317 121.785 65.2317 124.946C65.2317 131.418 69.7831 139.304 75.3891 142.54C78.1301 144.122 80.6211 144.301 82.4471 143.315C82.5291 143.272 82.6101 143.223 82.6881 143.178L189.275 81.6228H189.272Z" fill="#24E1C8" fill-opacity="0.899"/>
<path fill-rule="evenodd" clip-rule="evenodd" d="M189.272 81.6228C191.173 80.5878 192.352 78.2888 192.352 74.9948C192.352 68.5188 187.8 60.6368 182.194 57.4008C179.332 55.7468 176.744 55.6268 174.898 56.7628L68.0804 118.448L68.0836 118.451C66.3191 119.542 65.2317 121.785 65.2317 124.946C65.2317 131.418 69.7831 139.304 75.3891 142.54C78.1301 144.122 80.6211 144.301 82.4471 143.315C82.5291 143.272 82.6101 143.223 82.6881 143.178L189.275 81.6228H189.272Z" fill="url(#paint4_linear)"/>
<path fill-rule="evenodd" clip-rule="evenodd" d="M75.3891 119.083C69.7826 115.847 65.2312 118.474 65.2312 124.946C65.2312 131.419 69.7826 139.304 75.3891 142.54C80.9951 145.776 85.5461 143.149 85.5461 136.677C85.5461 130.201 80.9951 122.319 75.3891 119.083Z" fill="#4FFCE7" fill-opacity="0.75"/>
<path fill-rule="evenodd" clip-rule="evenodd" d="M75.3891 119.083C69.7826 115.847 65.2312 118.474 65.2312 124.946C65.2312 131.419 69.7826 139.304 75.3891 142.54C80.9951 145.776 85.5461 143.149 85.5461 136.677C85.5461 130.201 80.9951 122.319 75.3891 119.083Z" fill="url(#paint5_linear)"/>
<path d="M62.6924 385.766C59.1503 385.766 56.2788 382.894 56.2788 379.352C56.2788 375.809 59.1503 372.938 62.6924 372.938C66.2346 372.938 69.1061 375.809 69.1061 379.352C69.1061 382.894 66.2346 385.766 62.6924 385.766Z" fill="#FFCE2D"/>
<path d="M412.148 144.548C405.878 144.548 400.795 139.466 400.795 133.196C400.795 126.926 405.878 121.843 412.148 121.843C418.417 121.843 423.5 126.926 423.5 133.196C423.5 139.466 418.417 144.548 412.148 144.548Z" fill="#FF70E9"/>
<path d="M423.461 499.893C415.589 499.893 409.208 493.512 409.208 485.64C409.208 477.768 415.589 471.387 423.461 471.387C431.333 471.387 437.714 477.768 437.714 485.64C437.714 493.512 431.333 499.893 423.461 499.893Z" fill="#6A7AFF"/>
<path fill-rule="evenodd" clip-rule="evenodd" d="M454.389 372.265L461.737 384.988L449.014 392.333L441.669 379.61L454.389 372.265ZM58.4823 490.485L57.5186 508.124L74.2401 498.471L58.4823 490.485Z" stroke="#17122C" stroke-width="0.23" stroke-miterlimit="1.5" stroke-linecap="round" stroke-linejoin="round"/>
<path d="M178.928 611.045C177.463 607.418 174.064 604.719 170.861 604.931C167.657 605.142 165.499 607.486 163.275 611.165C161.097 614.766 158.805 617.156 155.53 617.156C152.219 617.156 149.321 614.704 147.733 611.045" stroke="#0C071A" stroke-width="0.23" stroke-miterlimit="1.5" stroke-linecap="round" stroke-linejoin="round"/>
<path d="M267.433 15.1818C264.121 15.1818 261.436 12.4969 261.436 9.18489C261.436 5.87289 264.121 3.18799 267.433 3.18799C270.745 3.18799 273.43 5.87289 273.43 9.18489C273.43 12.4969 270.745 15.1818 267.433 15.1818Z" stroke="#0C071A" stroke-width="0.23" stroke-miterlimit="1.5" stroke-linecap="round" stroke-linejoin="round"/>
<path d="M46.0711 178.87C47.3854 181.318 47.6952 184.181 46.9349 186.853C46.1747 189.525 44.4041 191.797 41.9981 193.186C39.5922 194.576 36.7399 194.974 34.0455 194.297C31.351 193.619 29.0259 191.92 27.5627 189.558" stroke="#0C071A" stroke-width="0.23" stroke-miterlimit="1.5" stroke-linecap="round" stroke-linejoin="round"/>
<path fill-rule="evenodd" clip-rule="evenodd" d="M343.225 626.011C343.225 626.011 367.148 623.638 367.148 600.308V151.815C367.148 130.361 354.086 105.399 337.993 96.1108L176.451 2.84287C163.855 -4.43023 148.859 4.02797 142.43 8.47187C137.435 11.9197 132.181 20.0918 132.181 29.7768V475.593C132.181 497.045 143.849 520.381 159.938 529.67L321.963 623.218C329.252 627.424 337.43 626.883 343.225 626.011Z" fill="#DCDCE9"/>
<path fill-rule="evenodd" clip-rule="evenodd" d="M343.225 626.011C343.225 626.011 367.148 623.638 367.148 600.308V151.815C367.148 130.361 354.086 105.399 337.993 96.1108L176.451 2.84287C163.855 -4.43023 148.859 4.02797 142.43 8.47187C137.435 11.9197 132.181 20.0918 132.181 29.7768V475.593C132.181 497.045 143.849 520.381 159.938 529.67L321.963 623.218C329.252 627.424 337.43 626.883 343.225 626.011Z" fill="url(#paint6_linear)"/>
<path fill-rule="evenodd" clip-rule="evenodd" d="M349.619 160.599C349.619 139.864 336.99 115.736 321.438 106.757L164.05 15.8888C148.498 6.90936 135.869 16.4548 135.869 37.1938V473.975C135.869 494.714 148.498 518.841 164.05 527.82L321.438 618.689C336.99 627.668 349.619 618.122 349.619 597.384V160.599Z" fill="#0B0618"/>
<path fill-rule="evenodd" clip-rule="evenodd" d="M316.2 117.152L162.55 28.4447C150.442 21.4517 140.613 28.8847 140.613 45.0297V478.1C140.613 494.245 150.442 513.026 162.55 520.016L316.2 608.726C328.308 615.716 338.137 608.287 338.137 592.142V159.072C338.137 142.927 328.308 124.145 316.2 117.152Z" fill="url(#paint7_linear)"/>
<path fill-rule="evenodd" clip-rule="evenodd" d="M302.249 125.207L148.602 36.4968C136.491 29.5068 126.662 36.9388 126.662 53.0838V486.154C126.662 502.296 136.491 521.081 148.602 528.071L302.249 616.781C314.357 623.771 324.189 616.338 324.189 600.193V167.126C324.189 150.982 314.357 132.197 302.249 125.207Z" stroke="#A8A8FA" stroke-opacity="0.5" stroke-width="0.28" stroke-miterlimit="1.5" stroke-linecap="round" stroke-linejoin="round"/>
<path fill-rule="evenodd" clip-rule="evenodd" d="M282.048 136.992L128.398 48.2819C122.743 45.0169 117.586 44.8989 113.695 47.3439C113.188 47.6599 109.883 49.4569 108.854 50.2779C105.022 53.3319 102.665 59.1489 102.665 67.0609V500.128C102.665 516.272 112.494 535.058 124.602 542.047L278.252 630.757C284.643 634.446 290.396 634.117 294.407 630.614C300.189 628.684 303.985 622.013 303.985 611.979V178.909C303.985 162.764 294.156 143.982 282.048 136.992Z" fill="#477BFC"/>
<path fill-rule="evenodd" clip-rule="evenodd" d="M282.048 136.992L128.398 48.2818C116.29 41.2918 106.461 48.7248 106.461 64.8698V497.937C106.461 514.081 116.29 532.866 128.398 539.856L282.048 628.563C294.156 635.556 303.985 628.124 303.985 611.979V178.909C303.985 162.764 294.156 143.982 282.048 136.992Z" fill="url(#paint8_linear)"/>
<path fill-rule="evenodd" clip-rule="evenodd" d="M278.252 139.183L124.602 50.4727C112.494 43.4827 102.665 50.9157 102.665 67.0607V500.127C102.665 516.272 112.494 535.057 124.602 542.047L278.252 630.757C290.36 637.747 300.192 630.315 300.192 614.17V181.103C300.192 164.958 290.36 146.173 278.252 139.183Z" fill="#631AFF"/>
<path fill-rule="evenodd" clip-rule="evenodd" d="M174.836 550.107C174.836 548.225 175.982 547.356 177.395 548.173L225.461 575.925C226.871 576.738 228.017 578.93 228.017 580.811C228.017 582.696 226.871 583.562 225.461 582.745L177.395 554.997C175.982 554.18 174.836 551.989 174.836 550.107Z" fill="white" fill-opacity="0.5"/>
<path fill-rule="evenodd" clip-rule="evenodd" d="M204.544 109.003L204.548 107.887C204.548 105.901 203.154 103.485 201.435 102.492C199.713 101.499 198.319 102.306 198.316 104.292V105.406L198.209 105.344C197.379 104.865 196.705 105.253 196.705 106.21L196.701 111.907C196.701 112.864 197.372 114.03 198.202 114.509L204.645 118.23C205.475 118.708 206.149 118.318 206.149 117.361L206.153 111.666C206.125 111.145 205.975 110.638 205.714 110.186C205.454 109.733 205.089 109.35 204.652 109.065L204.544 109.003ZM199.7 106.207L199.703 105.09C199.703 103.986 200.478 103.54 201.432 104.094C202.389 104.644 203.161 105.985 203.161 107.089V108.202L199.7 106.207Z" fill="#E6E7EE"/>
<path fill-rule="evenodd" clip-rule="evenodd" d="M277.093 530.357C277.093 516.585 268.707 500.567 258.38 494.603L151.347 432.807C141.02 426.846 132.637 433.185 132.637 446.953C132.637 460.721 141.02 476.742 151.347 482.704L258.38 544.499C268.707 550.463 277.093 544.125 277.093 530.357Z" fill="url(#paint9_linear)"/>
<path fill-rule="evenodd" clip-rule="evenodd" d="M252.194 527.84C252.194 523.796 249.733 519.095 246.702 517.344L113.23 440.286C110.199 438.534 107.738 440.396 107.738 444.437V479.689C107.738 483.729 110.199 488.434 113.23 490.182L246.702 567.243C249.733 568.991 252.194 567.132 252.194 563.089V527.84Z" fill="#A2C5FD" fill-opacity="0.75"/>
<path fill-rule="evenodd" clip-rule="evenodd" d="M249.156 529.971C249.156 525.719 246.568 520.774 243.381 518.931L110.479 442.202C107.288 440.36 104.7 442.319 104.7 446.568V481.062C104.7 485.31 107.288 490.259 110.479 492.098L243.381 568.831C246.568 570.67 249.156 568.714 249.156 564.462V529.971Z" fill="white" fill-opacity="0.75"/>
<path fill-rule="evenodd" clip-rule="evenodd" d="M290.363 332.757C290.363 325.933 286.212 317.999 281.094 315.046L125.92 225.454C120.806 222.501 116.651 225.639 116.651 232.463V358.672C116.651 365.492 120.806 373.43 125.92 376.382L281.094 465.975C286.212 468.928 290.363 465.789 290.363 458.965V332.757Z" fill="url(#paint10_linear)"/>
<path fill-rule="evenodd" clip-rule="evenodd" d="M267.69 345.849C267.69 339.028 263.536 331.091 258.422 328.138L103.244 238.546C98.1301 235.593 93.9751 238.731 93.9751 245.555V371.764C93.9751 378.584 98.1301 386.522 103.244 389.474L258.422 479.067C263.536 482.02 267.69 478.881 267.69 472.057V345.849Z" fill="#A2C5FD" fill-opacity="0.75"/>
<path fill-rule="evenodd" clip-rule="evenodd" d="M264.383 347.151C264.383 340.327 260.229 332.393 255.114 329.437L99.94 239.848C94.822 236.895 90.668 240.033 90.668 246.857V373.066C90.668 379.887 94.822 387.824 99.94 390.777L255.114 480.369C260.229 483.322 264.383 480.183 264.383 473.36V347.151Z" fill="white" fill-opacity="0.75"/>
<path fill-rule="evenodd" clip-rule="evenodd" d="M264.383 347.151C264.383 340.327 260.229 332.393 255.114 329.437L99.94 239.848C94.822 236.895 90.668 240.033 90.668 246.857V373.066C90.668 379.887 94.822 387.824 99.94 390.777L255.114 480.369C260.229 483.322 264.383 480.183 264.383 473.36V347.151Z" fill="url(#paint11_linear)"/>
<path fill-rule="evenodd" clip-rule="evenodd" d="M127.503 312.866C127.503 310.626 128.867 309.594 130.547 310.564L224.505 364.855C226.188 365.825 227.552 368.436 227.552 370.68C227.552 372.923 226.188 373.955 224.505 372.985L130.547 318.69C128.867 317.72 127.503 315.109 127.503 312.866ZM127.503 333.865C127.503 331.622 128.867 330.59 130.547 331.56L224.505 385.851C226.188 386.824 227.552 389.432 227.552 391.675C227.552 393.918 226.188 394.951 224.505 393.98L130.547 339.686C128.867 338.716 127.503 336.105 127.503 333.865ZM162.732 375.202C162.732 372.959 164.099 371.927 165.779 372.897L224.505 406.827C226.188 407.797 227.552 410.408 227.552 412.651C227.552 414.895 226.188 415.927 224.505 414.953L165.779 381.026C164.099 380.053 162.732 377.442 162.732 375.202Z" fill="white"/>
<path fill-rule="evenodd" clip-rule="evenodd" d="M266.353 214.018L264.165 215.291L276.211 236.176L264.178 243.117L266.372 246.919L280.599 238.712L266.353 214.018ZM140.382 141.283L142.569 145.089L130.524 152.04L142.556 172.899L140.362 174.165L126.135 149.5L140.382 141.283Z" fill="#1418A5" fill-opacity="0.5"/>
<path fill-rule="evenodd" clip-rule="evenodd" d="M258.136 218.761L255.948 220.034L267.994 240.919L255.961 247.86L258.155 251.666L272.382 243.455L258.136 218.761ZM132.165 146.027L134.352 149.833L122.306 156.784L134.339 177.642L132.145 178.909L117.918 154.244L132.165 146.027Z" fill="white"/>
<path fill-rule="evenodd" clip-rule="evenodd" d="M199.947 144.164C179.198 132.184 162.35 141.908 162.35 165.87C162.35 189.828 179.198 219.005 199.947 230.986C220.695 242.967 237.543 233.239 237.543 209.281C237.543 185.322 220.695 156.142 199.947 144.164Z" fill="url(#paint12_linear)"/>
<path fill-rule="evenodd" clip-rule="evenodd" d="M180.244 155.539C159.492 143.558 142.647 153.286 142.647 177.245C142.647 201.203 159.492 230.383 180.244 242.361C200.992 254.342 217.837 244.614 217.837 220.656C217.837 196.697 200.992 167.52 180.244 155.539Z" fill="#A2C5FD" fill-opacity="0.75"/>
<path fill-rule="evenodd" clip-rule="evenodd" d="M177.287 157.246C156.539 145.265 139.694 154.993 139.694 178.951C139.694 202.909 156.539 232.086 177.287 244.067C198.039 256.048 214.884 246.32 214.884 222.362C214.884 198.403 198.039 169.223 177.287 157.246Z" fill="white" fill-opacity="0.75"/>
<path fill-rule="evenodd" clip-rule="evenodd" d="M191.192 229.052C189.327 221.125 183.779 212.947 177.235 209.167C170.756 205.429 165.261 207.125 163.337 212.754L191.192 229.052ZM177.235 187.041C172.957 184.574 169.487 186.579 169.487 191.515C169.487 196.453 172.957 202.467 177.235 204.934C181.51 207.402 184.98 205.397 184.98 200.461C184.98 195.522 181.51 189.512 177.235 187.041Z" stroke="#0E16F6" stroke-opacity="0.75" stroke-width="0.28" stroke-miterlimit="1.5" stroke-linecap="round" stroke-linejoin="round"/>
<path fill-rule="evenodd" clip-rule="evenodd" d="M263.8 138.835L266.844 140.59V153.554L263.8 151.795V138.835Z" fill="#477BFC"/>
<path fill-rule="evenodd" clip-rule="evenodd" d="M268.364 144.513L271.408 146.271V156.191L268.364 154.433V144.513ZM272.763 149.982L275.804 151.74V158.73L272.763 156.972V149.982ZM276.819 155.032L279.86 156.79V161.074L276.819 159.316V155.032Z" fill="white"/>
<path fill-rule="evenodd" clip-rule="evenodd" d="M122.501 63.4788C122.501 62.2418 123.253 61.6728 124.181 62.2058L136.904 69.5638C137.829 70.1008 138.584 71.5398 138.584 72.7778V77.2608C138.584 78.4978 137.829 79.0678 136.904 78.5338L124.181 71.1758C123.253 70.6418 122.501 69.1998 122.501 67.9618V63.4788Z" fill="#477BFC"/>
<path fill-rule="evenodd" clip-rule="evenodd" d="M121.577 64.4531C121.577 64.0461 121.824 63.8601 122.127 64.0361L126.069 66.3151C126.375 66.4911 126.62 66.9631 126.62 67.3671V68.8381C126.62 69.2421 126.375 69.4311 126.069 69.2551L122.127 66.9761C121.824 66.8001 121.577 66.3281 121.577 65.9211V64.4531Z" fill="#477BFC"/>
<path fill-rule="evenodd" clip-rule="evenodd" d="M123.4 64.4984C123.4 63.5344 123.986 63.0914 124.706 63.5084L136.423 70.2834C137.142 70.7004 137.728 71.8204 137.728 72.7804V76.2704C137.728 77.2314 137.142 77.6734 136.423 77.2574L124.706 70.4824C123.986 70.0654 123.4 68.9454 123.4 67.9854V64.4984Z" fill="white"/>
<path fill-rule="evenodd" clip-rule="evenodd" d="M356.642 274.544C356.642 271.565 358.455 268.101 360.689 266.811C362.922 265.519 364.735 266.89 364.735 269.868V306.95C364.735 309.926 362.922 313.393 360.689 314.683C358.455 315.972 356.642 314.601 356.642 311.622V274.544ZM356.642 218.283C356.642 215.307 358.455 211.84 360.689 210.55C362.922 209.261 364.735 210.632 364.735 213.611V250.689C364.735 253.668 362.922 257.132 360.689 258.422C358.455 259.714 356.642 258.343 356.642 255.365V218.283Z" stroke="white" stroke-width="0.23" stroke-miterlimit="1.5" stroke-linecap="round" stroke-linejoin="round"/>
<path d="M62.8257 72.67C54.2418 72.67 47.2832 65.712 47.2832 57.128C47.2832 48.544 54.2418 41.585 62.8257 41.585C71.4095 41.585 78.368 48.544 78.368 57.128C78.368 65.712 71.4095 72.67 62.8257 72.67Z" fill="#DBDBE9"/>
<path d="M62.8257 72.67C54.2418 72.67 47.2832 65.712 47.2832 57.128C47.2832 48.544 54.2418 41.585 62.8257 41.585C71.4095 41.585 78.368 48.544 78.368 57.128C78.368 65.712 71.4095 72.67 62.8257 72.67Z" fill="url(#paint13_linear)"/>
<path fill-rule="evenodd" clip-rule="evenodd" d="M393.238 306.283C388.784 303.711 385.167 305.798 385.167 310.941C385.167 316.082 388.784 322.343 393.238 324.915C397.689 327.487 401.306 325.4 401.306 320.256C401.306 315.115 397.689 308.855 393.238 306.283Z" fill="#24E1C8" fill-opacity="0.899"/>
<path fill-rule="evenodd" clip-rule="evenodd" d="M398.861 325.523C400.368 324.699 401.306 322.873 401.306 320.255C401.306 315.114 397.689 308.854 393.238 306.282C390.962 304.97 388.905 304.872 387.44 305.774L339.751 333.32C338.351 334.189 337.488 335.97 337.488 338.483C337.488 343.624 341.102 349.885 345.556 352.457C347.734 353.713 349.71 353.857 351.162 353.072H351.165L351.354 352.961L398.861 325.523Z" fill="#7252FF" fill-opacity="0.899"/>
<path fill-rule="evenodd" clip-rule="evenodd" d="M398.861 325.523C400.368 324.699 401.306 322.873 401.306 320.255C401.306 315.114 397.689 308.854 393.238 306.282C390.962 304.97 388.905 304.872 387.44 305.774L339.751 333.32C338.351 334.189 337.488 335.97 337.488 338.483C337.488 343.624 341.102 349.885 345.556 352.457C347.734 353.713 349.71 353.857 351.162 353.072H351.165L351.354 352.961L398.861 325.523Z" fill="url(#paint14_linear)"/>
<path fill-rule="evenodd" clip-rule="evenodd" d="M345.556 333.826C341.102 331.254 337.489 333.341 337.489 338.485C337.489 343.625 341.102 349.886 345.556 352.458C350.01 355.027 353.624 352.94 353.624 347.799C353.624 342.658 350.01 336.395 345.556 333.826Z" fill="#74B0FF" fill-opacity="0.75"/>
<path fill-rule="evenodd" clip-rule="evenodd" d="M345.556 333.826C341.102 331.254 337.489 333.341 337.489 338.485C337.489 343.625 341.102 349.886 345.556 352.458C350.01 355.027 353.624 352.94 353.624 347.799C353.624 342.658 350.01 336.395 345.556 333.826Z" fill="url(#paint15_linear)"/>
<path d="M78 395C119.421 395 153 361.421 153 320C153 278.578 119.421 245 78 245C36.5786 245 3 278.578 3 320C3 361.421 36.5786 395 78 395Z" fill="white" stroke="#E6E6E6" stroke-width="5"/>
<g clip-path="url(#clip0)">
<mask id="mask0" mask-type="alpha" maskUnits="userSpaceOnUse" x="38" y="281" width="79" height="79">
<path d="M116.13 281.339H38.1295V359.739H116.13V281.339Z" fill="white"/>
<path d="M100.459 282.757C100.14 282.811 99.8421 282.987 99.64 283.273L98.1775 285.345C97.7734 285.917 97.9077 286.709 98.476 287.115C98.6983 287.273 98.9535 287.35 99.206 287.35C99.6013 287.35 99.9895 287.163 100.237 286.815L101.699 284.745C102.103 284.173 101.972 283.381 101.404 282.975C101.118 282.771 100.777 282.702 100.459 282.757ZM62.979 287.678C61.3536 287.627 59.8189 287.957 58.4632 288.743C56.2943 290.002 54.9021 292.25 54.2015 294.998C53.5011 297.746 53.4412 301.044 53.9253 304.73C54.0841 305.938 54.3228 307.203 54.5986 308.488C53.3544 308.89 52.1468 309.312 51.0275 309.777C47.6093 311.199 44.7977 312.9 42.7803 314.884C40.7629 316.867 39.5223 319.203 39.5223 321.72C39.5223 324.238 40.7629 326.574 42.7803 328.557C44.7977 330.541 47.6093 332.242 51.0275 333.664C52.1468 334.129 53.3544 334.551 54.5986 334.953C54.3228 336.238 54.0841 337.5 53.9253 338.708C53.4412 342.395 53.5011 345.693 54.2015 348.441C54.9021 351.189 56.2943 353.436 58.4632 354.695C60.6322 355.954 63.265 356.042 65.9829 355.278C68.7009 354.513 71.5723 352.916 74.5063 350.652C75.4677 349.91 76.4349 349.07 77.4042 348.188C78.3732 349.07 79.3412 349.91 80.3021 350.652C83.236 352.916 86.1076 354.513 88.8254 355.278C91.5435 356.042 94.1762 355.954 96.3452 354.695C98.514 353.436 99.9063 351.189 100.607 348.441C101.307 345.693 101.367 342.395 100.883 338.708C100.725 337.502 100.485 336.239 100.21 334.955C101.454 334.553 102.661 334.13 103.781 333.664C107.199 332.242 110.011 330.541 112.028 328.557C114.045 326.574 115.286 324.238 115.286 321.72C115.286 319.203 114.045 316.867 112.028 314.884C110.011 312.9 107.199 311.199 103.781 309.777C102.661 309.311 101.454 308.888 100.21 308.486C100.485 307.202 100.724 305.939 100.883 304.733C101.367 301.046 101.307 297.748 100.607 295C99.9063 292.252 98.514 290.005 96.3452 288.746C94.1762 287.487 91.5435 287.399 88.8254 288.163C86.1076 288.928 83.236 290.524 80.3021 292.789C79.3412 293.531 78.3732 294.371 77.4042 295.253C76.4349 294.371 75.4677 293.529 74.5063 292.787C71.5723 290.522 68.7009 288.925 65.9829 288.161C64.9637 287.874 63.9543 287.708 62.979 287.678ZM105.061 287.973C104.898 287.986 104.734 288.033 104.58 288.114L102.343 289.291C101.726 289.618 101.486 290.387 101.81 291.007C102.036 291.441 102.475 291.686 102.93 291.686C103.127 291.686 103.328 291.64 103.515 291.542L105.751 290.362C106.369 290.036 106.609 289.269 106.284 288.649C106.041 288.183 105.551 287.932 105.061 287.973ZM62.9198 290.209C63.6544 290.235 64.4491 290.368 65.3022 290.608C67.5773 291.247 70.2109 292.676 72.965 294.802C73.8196 295.462 74.6903 296.21 75.562 296.998C73.0636 299.492 70.5853 302.429 68.2099 305.714C64.1917 306.139 60.4227 306.829 57.0254 307.757C56.7819 306.604 56.5722 305.472 56.4311 304.398C55.9766 300.938 56.0617 297.93 56.6481 295.63C57.2345 293.33 58.2712 291.787 59.726 290.942C60.6353 290.415 61.6955 290.165 62.9198 290.209ZM91.8861 290.211C93.1104 290.168 94.1732 290.417 95.0824 290.945C96.5371 291.789 97.574 293.33 98.1604 295.63C98.7466 297.93 98.8294 300.94 98.3749 304.4C98.2338 305.474 98.0264 306.604 97.7829 307.757C94.3857 306.829 90.6168 306.139 86.5984 305.714C84.2233 302.429 81.7446 299.494 79.2465 297.001C80.1181 296.213 80.9863 295.464 81.841 294.804C84.5951 292.679 87.2287 291.247 89.5038 290.608C90.3569 290.368 91.1515 290.237 91.8861 290.211ZM106.98 294.445L104.481 294.822C103.792 294.926 103.317 295.574 103.421 296.267C103.515 296.898 104.054 297.348 104.669 297.348C104.731 297.348 104.792 297.342 104.856 297.333L107.354 296.956C108.044 296.852 108.521 296.206 108.418 295.513C108.314 294.822 107.672 294.354 106.98 294.445ZM77.4042 298.743C79.3594 300.692 81.3224 302.935 83.2369 305.429C81.3312 305.304 79.3936 305.221 77.4042 305.221C75.414 305.221 73.4755 305.304 71.5691 305.429C73.484 302.934 75.4484 300.692 77.4042 298.743ZM104.972 300.913C104.279 300.873 103.677 301.405 103.638 302.105C103.596 302.805 104.13 303.407 104.827 303.446L107.347 303.592C107.372 303.594 107.396 303.595 107.421 303.595C108.084 303.595 108.64 303.071 108.679 302.397C108.721 301.697 108.19 301.098 107.493 301.059L104.972 300.913ZM77.4042 307.759C80.09 307.759 82.6991 307.892 85.2149 308.124C86.6724 310.197 88.0896 312.402 89.4322 314.74C90.7754 317.078 91.9675 319.414 93.0256 321.72C91.9675 324.027 90.7754 326.363 89.4322 328.701C88.0896 331.039 86.6724 333.244 85.2149 335.317C82.6991 335.549 80.09 335.682 77.4042 335.682C74.7184 335.682 72.1092 335.549 69.5936 335.317C68.1354 333.243 66.7169 331.04 65.3738 328.701C64.0305 326.363 62.841 324.024 61.7828 321.718C62.8404 319.413 64.0315 317.077 65.3738 314.74C66.7169 312.401 68.1354 310.198 69.5936 308.124C72.1092 307.892 74.7184 307.759 77.4042 307.759ZM66.2839 308.495C65.2231 310.093 64.1812 311.738 63.1861 313.471C62.1918 315.202 61.2963 316.931 60.4511 318.652C59.2591 315.738 58.3084 312.909 57.6075 310.233C60.2641 309.505 63.177 308.915 66.2839 308.495ZM88.5221 308.495C91.63 308.915 94.5437 309.505 97.201 310.233C96.4999 312.91 95.5492 315.74 94.3573 318.654C93.5116 316.932 92.6149 315.203 91.6198 313.471C90.625 311.739 89.5825 310.092 88.5221 308.495ZM55.1831 310.965C56.0823 314.386 57.3726 318.01 59.0157 321.72C57.3725 325.431 56.0823 329.055 55.1831 332.476C54.0682 332.112 52.9899 331.73 51.9942 331.316C48.7857 329.982 46.2348 328.403 44.5461 326.743C42.8575 325.082 42.0478 323.409 42.0478 321.72C42.0478 320.032 42.8575 318.359 44.5461 316.698C46.2348 315.038 48.7857 313.459 51.9942 312.125C52.9899 311.711 54.0682 311.329 55.1831 310.965ZM99.6229 310.965C100.739 311.329 101.818 311.71 102.814 312.125C106.023 313.459 108.574 315.038 110.262 316.698C111.951 318.359 112.761 320.032 112.761 321.72C112.761 323.409 111.951 325.082 110.262 326.743C108.574 328.403 106.023 329.982 102.814 331.316C101.818 331.73 100.74 332.112 99.6252 332.476C98.7262 329.055 97.4334 325.431 95.7903 321.72C97.433 318.011 98.7238 314.385 99.6229 310.965ZM77.4042 312.836C72.5375 312.836 68.5651 316.829 68.5651 321.72C68.5651 326.612 72.5375 330.605 77.4042 330.605C82.2709 330.605 86.2434 326.612 86.2434 321.72C86.2434 316.829 82.2709 312.836 77.4042 312.836ZM77.4042 315.375C80.9061 315.375 83.7178 318.201 83.7178 321.72C83.7178 325.24 80.9061 328.066 77.4042 328.066C73.9024 328.066 71.0906 325.24 71.0906 321.72C71.0906 318.201 73.9024 315.375 77.4042 315.375ZM94.3573 324.787C95.5492 327.701 96.4999 330.531 97.201 333.208C94.5437 333.936 91.63 334.526 88.5221 334.946C89.5825 333.349 90.625 331.702 91.6198 329.97C92.6149 328.238 93.5116 326.509 94.3573 324.787ZM60.4511 324.789C61.2962 326.51 62.1921 328.24 63.1861 329.97C64.1812 331.703 65.2231 333.348 66.2839 334.946C63.177 334.526 60.2641 333.936 57.6075 333.208C58.3084 330.532 59.2591 327.703 60.4511 324.789ZM57.0254 335.684C60.4227 336.612 64.1917 337.302 68.2099 337.727C70.5853 341.012 73.0636 343.949 75.562 346.443C74.6903 347.231 73.8196 347.977 72.965 348.637C70.2109 350.762 67.5773 352.194 65.3022 352.833C63.0272 353.473 61.1809 353.343 59.726 352.499C58.2712 351.654 57.232 350.111 56.6456 347.811C56.0593 345.511 55.9766 342.501 56.4311 339.041C56.5722 337.967 56.7819 336.837 57.0254 335.684ZM97.7829 335.684C98.0264 336.837 98.2338 337.967 98.3749 339.041C98.8294 342.501 98.7466 345.511 98.1604 347.811C97.574 350.111 96.5371 351.652 95.0824 352.496C93.6276 353.34 91.7812 353.473 89.5061 352.833C87.2312 352.194 84.5951 350.762 81.841 348.637C80.9863 347.977 80.1181 347.228 79.2465 346.44C81.7446 343.947 84.2233 341.012 86.5984 337.727C90.6168 337.302 94.3857 336.612 97.7829 335.684ZM47.8707 336.592C47.1749 336.498 46.5435 336.987 46.4526 337.682C46.3591 338.378 46.8457 339.015 47.5377 339.108L50.041 339.442C50.0978 339.45 50.1531 339.455 50.2087 339.455C50.8325 339.455 51.3757 338.989 51.4591 338.352C51.5525 337.656 51.0659 337.019 50.3739 336.926L47.8707 336.592ZM71.5691 338.012C73.4755 338.137 75.414 338.22 77.4042 338.22C79.3936 338.22 81.3312 338.137 83.2369 338.012C81.3224 340.506 79.3596 342.749 77.4042 344.698C75.4484 342.749 73.484 340.507 71.5691 338.012ZM49.8264 343.066L47.3034 343.153C46.6051 343.176 46.0586 343.761 46.0826 344.462C46.1053 345.149 46.6661 345.689 47.3429 345.689C47.358 345.689 47.3746 345.69 47.3873 345.689L49.9103 345.602C50.6085 345.58 51.1551 344.994 51.1311 344.293C51.1083 343.592 50.5222 343.019 49.8264 343.066ZM50.919 349.023C50.7556 349.006 50.5881 349.023 50.4208 349.075L48.0038 349.816C47.3371 350.021 46.962 350.73 47.1653 351.401C47.3307 351.948 47.8321 352.3 48.3738 352.3C48.495 352.3 48.6175 352.281 48.7412 352.243L51.1582 351.502C51.8249 351.298 52.2013 350.588 51.9967 349.918C51.8452 349.416 51.4089 349.074 50.919 349.023ZM53.5948 354.152C53.2728 354.128 52.9413 354.225 52.6774 354.452L50.7611 356.108C50.232 356.564 50.1722 357.366 50.6255 357.898C50.8755 358.191 51.23 358.339 51.5849 358.339C51.8765 358.339 52.1687 358.237 52.4061 358.032L54.3224 356.378C54.8514 355.923 54.9113 355.12 54.4581 354.588C54.2301 354.323 53.917 354.176 53.5948 354.152Z" fill="black"/>
</mask>
<g mask="url(#mask0)">
<path d="M100.459 282.757C100.14 282.811 99.8421 282.987 99.64 283.273L98.1775 285.345C97.7734 285.917 97.9077 286.709 98.476 287.115C98.6983 287.273 98.9535 287.35 99.206 287.35C99.6013 287.35 99.9895 287.163 100.237 286.815L101.699 284.745C102.103 284.173 101.972 283.381 101.404 282.975C101.118 282.771 100.777 282.702 100.459 282.757ZM62.979 287.678C61.3536 287.627 59.8189 287.957 58.4632 288.743C56.2943 290.002 54.9021 292.25 54.2015 294.998C53.5011 297.746 53.4412 301.044 53.9253 304.73C54.0841 305.938 54.3228 307.203 54.5986 308.488C53.3544 308.89 52.1468 309.312 51.0275 309.777C47.6093 311.199 44.7977 312.9 42.7803 314.884C40.7629 316.867 39.5223 319.203 39.5223 321.72C39.5223 324.238 40.7629 326.574 42.7803 328.557C44.7977 330.541 47.6093 332.242 51.0275 333.664C52.1468 334.129 53.3544 334.551 54.5986 334.953C54.3228 336.238 54.0841 337.5 53.9253 338.708C53.4412 342.395 53.5011 345.693 54.2015 348.441C54.9021 351.189 56.2943 353.436 58.4632 354.695C60.6322 355.954 63.265 356.042 65.9829 355.278C68.7009 354.513 71.5723 352.916 74.5063 350.652C75.4677 349.91 76.4349 349.07 77.4042 348.188C78.3732 349.07 79.3412 349.91 80.3021 350.652C83.236 352.916 86.1076 354.513 88.8254 355.278C91.5435 356.042 94.1762 355.954 96.3452 354.695C98.514 353.436 99.9063 351.189 100.607 348.441C101.307 345.693 101.367 342.395 100.883 338.708C100.725 337.502 100.485 336.239 100.21 334.955C101.454 334.553 102.661 334.13 103.781 333.664C107.199 332.242 110.011 330.541 112.028 328.557C114.045 326.574 115.286 324.238 115.286 321.72C115.286 319.203 114.045 316.867 112.028 314.884C110.011 312.9 107.199 311.199 103.781 309.777C102.661 309.311 101.454 308.888 100.21 308.486C100.485 307.202 100.724 305.939 100.883 304.733C101.367 301.046 101.307 297.748 100.607 295C99.9063 292.252 98.514 290.005 96.3452 288.746C94.1762 287.487 91.5435 287.399 88.8254 288.163C86.1076 288.928 83.236 290.524 80.3021 292.789C79.3412 293.531 78.3732 294.371 77.4042 295.253C76.4349 294.371 75.4677 293.529 74.5063 292.787C71.5723 290.522 68.7009 288.925 65.9829 288.161C64.9637 287.874 63.9543 287.708 62.979 287.678ZM105.061 287.973C104.898 287.986 104.734 288.033 104.58 288.114L102.343 289.291C101.726 289.618 101.486 290.387 101.81 291.007C102.036 291.441 102.475 291.686 102.93 291.686C103.127 291.686 103.328 291.64 103.515 291.542L105.751 290.362C106.369 290.036 106.609 289.269 106.284 288.649C106.041 288.183 105.551 287.932 105.061 287.973ZM62.9198 290.209C63.6544 290.235 64.4491 290.368 65.3022 290.608C67.5773 291.247 70.2109 292.676 72.965 294.802C73.8196 295.462 74.6903 296.21 75.562 296.998C73.0636 299.492 70.5853 302.429 68.2099 305.714C64.1917 306.139 60.4227 306.829 57.0254 307.757C56.7819 306.604 56.5722 305.472 56.4311 304.398C55.9766 300.938 56.0617 297.93 56.6481 295.63C57.2345 293.33 58.2712 291.787 59.726 290.942C60.6353 290.415 61.6955 290.165 62.9198 290.209ZM91.8861 290.211C93.1104 290.168 94.1732 290.417 95.0824 290.945C96.5371 291.789 97.574 293.33 98.1604 295.63C98.7466 297.93 98.8294 300.94 98.3749 304.4C98.2338 305.474 98.0264 306.604 97.7829 307.757C94.3857 306.829 90.6168 306.139 86.5984 305.714C84.2233 302.429 81.7446 299.494 79.2465 297.001C80.1181 296.213 80.9863 295.464 81.841 294.804C84.5951 292.679 87.2287 291.247 89.5038 290.608C90.3569 290.368 91.1515 290.237 91.8861 290.211ZM106.98 294.445L104.481 294.822C103.792 294.926 103.317 295.574 103.421 296.267C103.515 296.898 104.054 297.348 104.669 297.348C104.731 297.348 104.792 297.342 104.856 297.333L107.354 296.956C108.044 296.852 108.521 296.206 108.418 295.513C108.314 294.822 107.672 294.354 106.98 294.445ZM77.4042 298.743C79.3594 300.692 81.3224 302.935 83.2369 305.429C81.3312 305.304 79.3936 305.221 77.4042 305.221C75.414 305.221 73.4755 305.304 71.5691 305.429C73.484 302.934 75.4484 300.692 77.4042 298.743ZM104.972 300.913C104.279 300.873 103.677 301.405 103.638 302.105C103.596 302.805 104.13 303.407 104.827 303.446L107.347 303.592C107.372 303.594 107.396 303.595 107.421 303.595C108.084 303.595 108.64 303.071 108.679 302.397C108.721 301.697 108.19 301.098 107.493 301.059L104.972 300.913ZM77.4042 307.759C80.09 307.759 82.6991 307.892 85.2149 308.124C86.6724 310.197 88.0896 312.402 89.4322 314.74C90.7754 317.078 91.9675 319.414 93.0256 321.72C91.9675 324.027 90.7754 326.363 89.4322 328.701C88.0896 331.039 86.6724 333.244 85.2149 335.317C82.6991 335.549 80.09 335.682 77.4042 335.682C74.7184 335.682 72.1092 335.549 69.5936 335.317C68.1354 333.243 66.7169 331.04 65.3738 328.701C64.0305 326.363 62.841 324.024 61.7828 321.718C62.8404 319.413 64.0315 317.077 65.3738 314.74C66.7169 312.401 68.1354 310.198 69.5936 308.124C72.1092 307.892 74.7184 307.759 77.4042 307.759ZM66.2839 308.495C65.2231 310.093 64.1812 311.738 63.1861 313.471C62.1918 315.202 61.2963 316.931 60.4511 318.652C59.2591 315.738 58.3084 312.909 57.6075 310.233C60.2641 309.505 63.177 308.915 66.2839 308.495ZM88.5221 308.495C91.63 308.915 94.5437 309.505 97.201 310.233C96.4999 312.91 95.5492 315.74 94.3573 318.654C93.5116 316.932 92.6149 315.203 91.6198 313.471C90.625 311.739 89.5825 310.092 88.5221 308.495ZM55.1831 310.965C56.0823 314.386 57.3726 318.01 59.0157 321.72C57.3725 325.431 56.0823 329.055 55.1831 332.476C54.0682 332.112 52.9899 331.73 51.9942 331.316C48.7857 329.982 46.2348 328.403 44.5461 326.743C42.8575 325.082 42.0478 323.409 42.0478 321.72C42.0478 320.032 42.8575 318.359 44.5461 316.698C46.2348 315.038 48.7857 313.459 51.9942 312.125C52.9899 311.711 54.0682 311.329 55.1831 310.965ZM99.6229 310.965C100.739 311.329 101.818 311.71 102.814 312.125C106.023 313.459 108.574 315.038 110.262 316.698C111.951 318.359 112.761 320.032 112.761 321.72C112.761 323.409 111.951 325.082 110.262 326.743C108.574 328.403 106.023 329.982 102.814 331.316C101.818 331.73 100.74 332.112 99.6252 332.476C98.7262 329.055 97.4334 325.431 95.7903 321.72C97.433 318.011 98.7238 314.385 99.6229 310.965ZM77.4042 312.836C72.5375 312.836 68.5651 316.829 68.5651 321.72C68.5651 326.612 72.5375 330.605 77.4042 330.605C82.2709 330.605 86.2434 326.612 86.2434 321.72C86.2434 316.829 82.2709 312.836 77.4042 312.836ZM77.4042 315.375C80.9061 315.375 83.7178 318.201 83.7178 321.72C83.7178 325.24 80.9061 328.066 77.4042 328.066C73.9024 328.066 71.0906 325.24 71.0906 321.72C71.0906 318.201 73.9024 315.375 77.4042 315.375ZM94.3573 324.787C95.5492 327.701 96.4999 330.531 97.201 333.208C94.5437 333.936 91.63 334.526 88.5221 334.946C89.5825 333.349 90.625 331.702 91.6198 329.97C92.6149 328.238 93.5116 326.509 94.3573 324.787ZM60.4511 324.789C61.2962 326.51 62.1921 328.24 63.1861 329.97C64.1812 331.703 65.2231 333.348 66.2839 334.946C63.177 334.526 60.2641 333.936 57.6075 333.208C58.3084 330.532 59.2591 327.703 60.4511 324.789ZM57.0254 335.684C60.4227 336.612 64.1917 337.302 68.2099 337.727C70.5853 341.012 73.0636 343.949 75.562 346.443C74.6903 347.231 73.8196 347.977 72.965 348.637C70.2109 350.762 67.5773 352.194 65.3022 352.833C63.0272 353.473 61.1809 353.343 59.726 352.499C58.2712 351.654 57.232 350.111 56.6456 347.811C56.0593 345.511 55.9766 342.501 56.4311 339.041C56.5722 337.967 56.7819 336.837 57.0254 335.684ZM97.7829 335.684C98.0264 336.837 98.2338 337.967 98.3749 339.041C98.8294 342.501 98.7466 345.511 98.1604 347.811C97.574 350.111 96.5371 351.652 95.0824 352.496C93.6276 353.34 91.7812 353.473 89.5061 352.833C87.2312 352.194 84.5951 350.762 81.841 348.637C80.9863 347.977 80.1181 347.228 79.2465 346.44C81.7446 343.947 84.2233 341.012 86.5984 337.727C90.6168 337.302 94.3857 336.612 97.7829 335.684ZM47.8707 336.592C47.1749 336.498 46.5435 336.987 46.4526 337.682C46.3591 338.378 46.8457 339.015 47.5377 339.108L50.041 339.442C50.0978 339.45 50.1531 339.455 50.2087 339.455C50.8325 339.455 51.3757 338.989 51.4591 338.352C51.5525 337.656 51.0659 337.019 50.3739 336.926L47.8707 336.592ZM71.5691 338.012C73.4755 338.137 75.414 338.22 77.4042 338.22C79.3936 338.22 81.3312 338.137 83.2369 338.012C81.3224 340.506 79.3596 342.749 77.4042 344.698C75.4484 342.749 73.484 340.507 71.5691 338.012ZM49.8264 343.066L47.3034 343.153C46.6051 343.176 46.0586 343.761 46.0826 344.462C46.1053 345.149 46.6661 345.689 47.3429 345.689C47.358 345.689 47.3746 345.69 47.3873 345.689L49.9103 345.602C50.6085 345.58 51.1551 344.994 51.1311 344.293C51.1083 343.592 50.5222 343.019 49.8264 343.066ZM50.919 349.023C50.7556 349.006 50.5881 349.023 50.4208 349.075L48.0038 349.816C47.3371 350.021 46.962 350.73 47.1653 351.401C47.3307 351.948 47.8321 352.3 48.3738 352.3C48.495 352.3 48.6175 352.281 48.7412 352.243L51.1582 351.502C51.8249 351.298 52.2013 350.588 51.9967 349.918C51.8452 349.416 51.4089 349.074 50.919 349.023ZM53.5948 354.152C53.2728 354.128 52.9413 354.225 52.6774 354.452L50.7611 356.108C50.232 356.564 50.1722 357.366 50.6255 357.898C50.8755 358.191 51.23 358.339 51.5849 358.339C51.8765 358.339 52.1687 358.237 52.4061 358.032L54.3224 356.378C54.8514 355.923 54.9113 355.12 54.4581 354.588C54.2301 354.323 53.917 354.176 53.5948 354.152Z" fill="#00D7FF"/>
</g>
</g>
<defs>
<linearGradient id="paint0_linear" x1="274.04" y1="554.265" x2="220.892" y2="459.644" gradientUnits="userSpaceOnUse">
<stop stop-color="#593AF6" stop-opacity="0.899"/>
<stop offset="1" stop-color="#593AF6" stop-opacity="0"/>
</linearGradient>
<linearGradient id="paint1_linear" x1="59.1446" y1="501.04" x2="97.992" y2="591.718" gradientUnits="userSpaceOnUse">
<stop stop-color="#BAFFF7"/>
<stop offset="1" stop-color="#BAFFF7" stop-opacity="0"/>
</linearGradient>
<linearGradient id="paint2_linear" x1="151.883" y1="129.95" x2="128.783" y2="88.8248" gradientUnits="userSpaceOnUse">
<stop stop-color="#593AF6" stop-opacity="0.899"/>
<stop offset="1" stop-color="#593AF6" stop-opacity="0"/>
</linearGradient>
<linearGradient id="paint3_linear" x1="58.5059" y1="106.812" x2="75.3901" y2="146.223" gradientUnits="userSpaceOnUse">
<stop stop-color="#BAFFF7"/>
<stop offset="1" stop-color="#BAFFF7" stop-opacity="0"/>
</linearGradient>
<linearGradient id="paint4_linear" x1="151.883" y1="129.95" x2="128.783" y2="88.8248" gradientUnits="userSpaceOnUse">
<stop stop-color="#593AF6" stop-opacity="0.899"/>
<stop offset="1" stop-color="#593AF6" stop-opacity="0"/>
</linearGradient>
<linearGradient id="paint5_linear" x1="58.5059" y1="106.812" x2="75.3901" y2="146.224" gradientUnits="userSpaceOnUse">
<stop stop-color="#BAFFF7"/>
<stop offset="1" stop-color="#BAFFF7" stop-opacity="0"/>
</linearGradient>
<linearGradient id="paint6_linear" x1="237.806" y1="646.658" x2="393.234" y2="138.595" gradientUnits="userSpaceOnUse">
<stop stop-color="#CBCDE4"/>
<stop offset="1" stop-color="#CBCDE4" stop-opacity="0"/>
</linearGradient>
<linearGradient id="paint7_linear" x1="152.987" y1="-73.89" x2="311.488" y2="647.137" gradientUnits="userSpaceOnUse">
<stop stop-color="#5D2FF9" stop-opacity="0.5"/>
<stop offset="1" stop-color="#5D2FF9" stop-opacity="0"/>
</linearGradient>
<linearGradient id="paint8_linear" x1="241.908" y1="502.333" x2="183.273" y2="174.25" gradientUnits="userSpaceOnUse">
<stop stop-color="#6DFFE1"/>
<stop offset="1" stop-color="#6DFFE1" stop-opacity="0"/>
</linearGradient>
<linearGradient id="paint9_linear" x1="275.788" y1="606.766" x2="75.6938" y2="325.747" gradientUnits="userSpaceOnUse">
<stop stop-color="#380DAF" stop-opacity="0.347"/>
<stop offset="1" stop-color="#380DAF" stop-opacity="0"/>
</linearGradient>
<linearGradient id="paint10_linear" x1="276.384" y1="501.735" x2="105.974" y2="163.31" gradientUnits="userSpaceOnUse">
<stop stop-color="#0E0EC6" stop-opacity="0.355"/>
<stop offset="1" stop-color="#0E0EC6" stop-opacity="0"/>
</linearGradient>
<linearGradient id="paint11_linear" x1="241.237" y1="496.914" x2="132.181" y2="245.264" gradientUnits="userSpaceOnUse">
<stop stop-color="#A2EBFF" stop-opacity="0.75"/>
<stop offset="1" stop-color="#A2EBFF" stop-opacity="0"/>
</linearGradient>
<linearGradient id="paint12_linear" x1="244.911" y1="256.947" x2="111.469" y2="93.0809" gradientUnits="userSpaceOnUse">
<stop stop-color="#380DAF" stop-opacity="0.347"/>
<stop offset="1" stop-color="#380DAF" stop-opacity="0"/>
</linearGradient>
<linearGradient id="paint13_linear" x1="49.4525" y1="33.87" x2="74.669" y2="81.917" gradientUnits="userSpaceOnUse">
<stop stop-color="white" stop-opacity="0.5"/>
<stop offset="1" stop-color="white" stop-opacity="0"/>
</linearGradient>
<linearGradient id="paint14_linear" x1="423.992" y1="332.217" x2="405.642" y2="299.549" gradientUnits="userSpaceOnUse">
<stop stop-color="#35FFD7" stop-opacity="0.899"/>
<stop offset="1" stop-color="#35FFD7" stop-opacity="0"/>
</linearGradient>
<linearGradient id="paint15_linear" x1="349.821" y1="313.861" x2="363.233" y2="345.168" gradientUnits="userSpaceOnUse">
<stop stop-color="white" stop-opacity="0.5"/>
<stop offset="1" stop-color="white" stop-opacity="0"/>
</linearGradient>
<clipPath id="clip0">
<rect x="39" y="282" width="78" height="77" fill="white"/>
</clipPath>
</defs>
</svg>
