<svg xmlns="http://www.w3.org/2000/svg" width="300" height="260" style="overflow: visible;" viewBox="0 0 512 512" data-svgdocument="" id="_I1eXFsbbhYlB8yyGb53BH" class="fl-svgdocument" x="0" y="0" xmlns:xlink="http://www.w3.org/1999/xlink">
<defs id="_0uPT7tp_GUQkRQ3obqfkr" transform="matrix(0.8115485310554504, 0, 0, 0.8115485310554504, 48.4871711730957, 48.24359130859375)" data-uid="o_ejim3ka3f_6">
<linearGradient id="go_ejim33f3l_26" x1="85%" y1="15%" x2="15%" y2="85%" data-uid="o_ejim3ka3f_7">
<stop offset="0%" data-uid="o_ejim3ka3f_8" style="stop-color: rgb(104, 238, 229); stop-opacity: 1;"></stop>
<stop offset="100%" data-uid="o_ejim3ka3f_9" style="stop-color: rgb(99, 45, 255); stop-opacity: 1;"></stop></linearGradient>
</defs>
<path id="_pt4dmmnHPiXc1v5Z9Lus0" d="M60 20c-16.563 0-30 13.431-30 29.997c0 11.045 8.955 20 20 20s19.997-8.955 20-20c0-7.357-5.967-13.331-13.333-13.331 c-7.363 0-13.334 5.974-13.334 13.333c0 3.685 2.985 6.667 6.667 6.667s6.667-2.982 6.667-6.667H50c0-3.685 2.985-6.667 6.667-6.667 s6.666 2.982 6.666 6.667c0 7.366-5.97 13.333-13.333 13.333S36.667 57.366 36.667 50c0-11.042 8.955-20 20-20 c11.048 0 19.996 8.955 20 19.997v-0.004V50v-0.003C76.663 64.724 64.727 76.663 50 76.663S23.333 64.724 23.333 49.997V50v-0.007 v0.004c0-20.248 16.42-36.664 36.667-36.664c2.624 0 5.179 0.286 7.646 0.811C62.317 11.517 56.341 10 50 10 c-22.09 0-40 17.91-40 40s17.91 40 40 40s40-17.91 40-40c0-1.035-0.078-2.051-0.156-3.066C88.308 31.807 75.534 20 60 20z" stroke="none" fill="url(#go_ejim33f3l_26)" transform="matrix(0.9743445515632629, 0, 0, 0.9743445515632629, 38.74372863769531, 207.28277587890625)" stroke-width="1" data-uid="o_ejim3ka3f_10"></path>
<path text="rw.news" text-anchor="start" font-size="100" letter-spacing="0" side="left" offset="0" dx="0" dy="0" space="preserve" href="" font-family="Signika" font-scale="contain" transform="matrix(0.4938136041164398, 0, 0, 0.4938136041164398, 137.8855438232422, 273.3479309082031)" x="0" y="0" fill="#fffffd" data-fl-textpath="" id="_KZwpPj0qQZQrMjsukiYYg" data-uid="o_ejim3ka3f_11" d="M 5-44.6L 5-44.6Q 6-48.3  8.8-50.1L 8.8-50.1Q 15.7-48.6  17.9-41.2L 17.9-41.2Q 21.9-50.1  31-50.1L 31-50.1Q 33.4-50.1  36.3-49.5L 36.3-49.5Q 36.3-43.7  33.8-39.7L 33.8-39.7Q 32.9-40  29.7-40.2L 29.7-40.2Q 22.9-40.2  19-32.6L 19-32.6L 19 0Q 17.1 0.4  13.85 0.4Q 10.6 0.4  8.7 0L 8.7 0L 8.7-34.3Q 8.7-41.1  5-44.6ZM 51.6-5.2L 51.6-5.2L 41.2-48.7Q 44.3-50.1  47.3-50.1L 47.3-50.1Q 51.3-50.1  52.1-45.9L 52.1-45.9L 56.6-25.1Q 57.9-19.3  59.9-8.5L 59.9-8.5Q 60.1-7.7  60.7-7.7L 60.7-7.7L 69.1-49.1Q 71.1-49.6  75.35-49.6Q 79.6-49.6  81.4-49.1L 81.4-49.1L 89.6-8.5Q 89.7-7.7  90.4-7.7L 90.4-7.7Q 91.8-15.3  94-25.1L 94-25.1L 99.4-49.4Q 101-49.8  104.15-49.8Q 107.3-49.8  109-49L 109-49L 109.3-48.5L 97.2 0.1Q 94.4 0.5  90.25 0.5Q 86.1 0.5  84.45-0.6Q 82.8-1.7  82.2-5.1L 82.2-5.1L 79.3-19L 75.5-39.8L 75-39.8Q 73.4-30.8  70.9-19.1L 70.9-19.1L 66.9 0Q 63.1 0.5  59.4 0.5Q 55.7 0.5  54.05-0.65Q 52.4-1.8  51.6-5.2ZM 114-10.4L 114-10.4Q 116.5-11.8  120.2-11.8L 120.2-11.8Q 121.9-11.8  123.2-11.55Q 124.5-11.3  125.5-10.85Q 126.5-10.4  126.85-9.05Q 127.2-7.7  127.2-5.5L 127.2-5.5Q 127.2-3.4  126.95-2.05Q 126.7-0.7  125.8-0.2Q 124.9 0.3  123.6 0.55Q 122.3 0.8  120.3 0.8L 120.3 0.8Q 118.4 0.8  117.05 0.55Q 115.7 0.3  114.7-0.1Q 113.7-0.5  113.4-1.9Q 113.1-3.3  113.1-5.5L 113.1-5.5Q 113.1-8.7  114-10.4ZM 180.5-33.9L 180.5-33.9L 180.5-10.6Q 180.5-4.7  182.20000000000002-1.5L 182.20000000000002-1.5Q 179.60000000000002 0.7  176.10000000000002 0.7L 176.10000000000002 0.7Q 172.70000000000002 0.7  171.45000000000002-0.95Q 170.20000000000002-2.6  170.20000000000002-5.9L 170.20000000000002-5.9L 170.20000000000002-31.3Q 170.20000000000002-36.5  168.85000000000002-38.7Q 167.5-40.9  164.20000000000002-40.9L 164.20000000000002-40.9Q 160.9-40.9  157.45000000000002-39.25Q 154-37.6  151.4-34.7L 151.4-34.7L 151.4 0Q 149.70000000000002 0.4  146.3 0.4L 146.3 0.4Q 144.70000000000002 0.4  143.4 0.3Q 142.10000000000002 0.2  141.10000000000002 0L 141.10000000000002 0L 141.10000000000002-49.2L 141.70000000000002-49.8L 145.60000000000002-49.8Q 151-49.8  151.3-43.6L 151.3-43.6Q 158.60000000000002-50.3  167.20000000000002-50.3L 167.20000000000002-50.3Q 173.9-50.3  177.20000000000002-45.85Q 180.5-41.4  180.5-33.9ZM 232.3-21.4L 232.3-21.4L 202.9-21.4Q 203.20000000000002-14.5  205.85-10.8Q 208.5-7.1  214.8-7.1L 214.8-7.1Q 217.8-7.1  221.25-8Q 224.7-8.9  228.4-10.9L 228.4-10.9Q 230.9-8.6  231.7-4.3L 231.7-4.3Q 223.7 1.3  212.9 1.3L 212.9 1.3Q 207.20000000000002 1.3  203.3-0.7Q 199.4-2.7  196.95000000000002-6.2Q 194.5-9.7  193.4-14.55Q 192.3-19.4  192.3-25L 192.3-25Q 192.3-30.5  193.70000000000002-35.25Q 195.1-40  197.70000000000002-43.4Q 200.3-46.8  204.15-48.75Q 208-50.7  212.8-50.7L 212.8-50.7Q 217.6-50.7  221.35000000000002-49.1Q 225.10000000000002-47.5  227.7-44.65Q 230.3-41.8  231.65-37.85Q 233-33.9  233-29.3L 233-29.3Q 233-27.3  232.85000000000002-25.35Q 232.7-23.4  232.3-21.4ZM 213.1-43L 213.1-43Q 203.6-43  202.9-28.9L 202.9-28.9L 223.10000000000002-28.9L 223.10000000000002-30.2Q 223.10000000000002-35.9  220.65-39.45Q 218.20000000000002-43  213.1-43ZM 249.29999999999995-5.2L 249.29999999999995-5.2L 238.89999999999995-48.7Q 241.99999999999997-50.1  244.99999999999997-50.1L 244.99999999999997-50.1Q 248.99999999999997-50.1  249.79999999999995-45.9L 249.79999999999995-45.9L 254.29999999999995-25.1Q 255.59999999999997-19.3  257.59999999999997-8.5L 257.59999999999997-8.5Q 257.79999999999995-7.7  258.4-7.7L 258.4-7.7L 266.79999999999995-49.1Q 268.79999999999995-49.6  273.04999999999995-49.6Q 277.29999999999995-49.6  279.09999999999997-49.1L 279.09999999999997-49.1L 287.29999999999995-8.5Q 287.4-7.7  288.09999999999997-7.7L 288.09999999999997-7.7Q 289.49999999999994-15.3  291.69999999999993-25.1L 291.69999999999993-25.1L 297.09999999999997-49.4Q 298.69999999999993-49.8  301.84999999999997-49.8Q 304.99999999999994-49.8  306.69999999999993-49L 306.69999999999993-49L 306.99999999999994-48.5L 294.9 0.1Q 292.09999999999997 0.5  287.94999999999993 0.5Q 283.79999999999995 0.5  282.15-0.6Q 280.49999999999994-1.7  279.9-5.1L 279.9-5.1L 276.99999999999994-19L 273.19999999999993-39.8L 272.69999999999993-39.8Q 271.09999999999997-30.8  268.59999999999997-19.1L 268.59999999999997-19.1L 264.59999999999997 0Q 260.79999999999995 0.5  257.09999999999997 0.5Q 253.39999999999995 0.5  251.74999999999997-0.65Q 250.09999999999997-1.8  249.29999999999995-5.2ZM 312.1-3.7L 312.1-3.7Q 312.2-5.4  313.2-7.55Q 314.2-9.7  315.5-10.9L 315.5-10.9Q 323.5-6.5  328.5-6.5L 328.5-6.5Q 333.6-6.5  336.05-8.2Q 338.5-9.9  338.5-12.7L 338.5-12.7Q 338.5-17.1  332.2-19.5L 332.2-19.5L 326.6-21.6Q 313.9-26.4  313.9-35.9L 313.9-35.9Q 313.9-42.8  318.85-46.75Q 323.8-50.7  331.8-50.7L 331.8-50.7Q 339.9-50.7  347.9-47.1L 347.9-47.1Q 347.9-45.1  347.05-42.9Q 346.2-40.7  344.8-39.5L 344.8-39.5Q 337.7-42.8  331.5-42.8L 331.5-42.8Q 328.2-42.8  326.25-41.2Q 324.3-39.6  324.3-37.2L 324.3-37.2Q 324.3-34.8  325.75-33.5Q 327.2-32.2  330.5-30.9L 330.5-30.9L 336.5-28.6Q 349.2-23.7  349.2-13.6L 349.2-13.6Q 349.2-6.7  343.9-2.7Q 338.6 1.3  329.5 1.3L 329.5 1.3Q 320.4 1.3  312.1-3.7Z"></path>
</svg>